{"title":"2pac - 2 Of Amerikaz Most Wanted feat. Snoop Dogg.m2v","uid":13938654,"size":110594512,"categoryP":"video","categoryS":"music_videos","magnet":"?xt=urn:btih:191e5a94c288b520fcb6e73453561e7f7786da8a&amp;dn=2pac+-+2+Of+Amerikaz+Most+Wanted+feat.+Snoop+Dogg.m2v&amp;tr=udp%3A%2F%2Ftracker.leechers-paradise.org%3A6969&amp;tr=udp%3A%2F%2Fzer0day.ch%3A1337&amp;tr=udp%3A%2F%2Fopen.demonii.com%3A1337&amp;tr=udp%3A%2F%2Ftracker.coppersurfer.tk%3A6969&amp;tr=udp%3A%2F%2Fexodus.desync.com%3A6969","seeders":0,"leechers":1,"uploader":".45cal","files":1,"time":1458448500,"description":"General\r\n\r\nComplete name : 2pac-2 Of Amerikaz Most Wanted feat.Snoop Dogg.m2v\r\nFormat : MPEG Video\r\nFormat version : Version 2\r\nFile size : 105 MiB\r\nDuration : 5mn 18s\r\nOverall bit rate mode : Variable\r\nOverall bit rate : 2 777 Kbps\r\nWriting library : TMPGEnc 2.521.58.169\r\n\r\nVideo\r\n\r\nFormat : MPEG Video\r\nFormat version : Version 2\r\nFormat profile :   \r\nFormat settings, BVOP : Yes\r\nFormat settings, Matrix : Custom\r\nDuration : 5mn 18s\r\nBit rate mode : Variable\r\nBit rate : 2 777 Kbps\r\nMaximum bit rate : 2 520 Kbps\r\nWidth : 480 pixels\r\nHeight : 576 pixels\r\nDisplay aspect ratio : 4:3\r\nFrame rate : 25.000 fps\r\nStandard : PAL\r\nColor space : YUV\r\nChroma subsampling : 4:2:0\r\nBit depth : 8 bits\r\nScan type : Progressive\r\nCompression mode : Lossy\r\nBits/(Pixel*Frame) : 0.402\r\nTime code of first frame : 00:00:00:00\r\nStream size : 105 MiB (100%)\r\nWriting library : TMPGEnc 2.521.58.169\r\nColor primaries : BT.601 PAL\r\nTransfer characteristics : BT.470 System B, BT.470 System G\r\nMatrix coefficients : FCC 73.682\r\n\r\n\r\nAudio\r\n\r\nID : 1\r\nFormat : MPEG Audio\r\nFormat version : Version 1\r\nFormat profile : Layer 3\r\nMode : Joint stereo\r\nMode extension : MS Stereo\r\nCodec ID : 55\r\nCodec ID/Hint : MP3\r\nDuration : 5mn 45s\r\nBit rate mode : Variable\r\nBit rate : 224 Kbps\r\nChannel(s) : 2 channels\r\nSampling rate : 48.0 KHz\r\nCompression mode : Lossy\r\nStream size : 8.94 MiB (9%)\r\nAlignment : Aligned on interleaves\r\nInterleave, duration : 24 ms (0.58 video frame)\r\nInterleave, preload duratio : 535 ms","torrent":{"xt":"urn:btih:191e5a94c288b520fcb6e73453561e7f7786da8a","amp;dn":"2pac+-+2+Of+Amerikaz+Most+Wanted+feat.+Snoop+Dogg.m2v","amp;tr":["udp%3A%2F%2Ftracker.leechers-paradise.org%3A6969","udp%3A%2F%2Fzer0day.ch%3A1337","udp%3A%2F%2Fopen.demonii.com%3A1337","udp%3A%2F%2Ftracker.coppersurfer.tk%3A6969","udp%3A%2F%2Fexodus.desync.com%3A6969"],"infoHash":"191e5a94c288b520fcb6e73453561e7f7786da8a","infoHashBuffer":{"type":"Buffer","data":[25,30,90,148,194,136,181,32,252,182,231,52,83,86,30,127,119,134,218,138]},"announce":[],"urlList":[]}}